<svg id="Layer_1" data-name="Layer 1" xmlns="http://www.w3.org/2000/svg" viewBox="0 0 30.82 37.31"><defs><style>.cls-1{fill:#2d3748;}</style></defs><polygon class="cls-1" points="6.17 16.44 16.88 27.15 15.14 28.89 15.37 29.1 20.28 24.19 20.07 23.96 18.45 25.59 12.79 19.91 23.28 20.75 21.86 22.17 22.09 22.4 26.62 17.85 26.39 17.64 25.36 18.67 13.18 17.85 10.56 17.68 7.73 14.87 9.36 13.25 9.13 13.04 4.22 17.95 4.43 18.18 6.17 16.44"/><polygon class="cls-1" points="11 11.61 12.62 9.99 12.81 17.15 13.16 17.17 12.95 9.66 14.24 8.36 14.02 8.15 10.77 11.4 11 11.61"/><path class="cls-1" d="M32.75,32.92a.62.62,0,0,0,.22.84.74.74,0,0,0,.29.08h3.46l.34-.58,4.28-7.14-2.79-2.8Z" transform="translate(-27.99 -0.79)"/><path class="cls-1" d="M52.78,28.82a9.74,9.74,0,0,1-1.91,2.46A9.62,9.62,0,0,1,49,32.67a6.59,6.59,0,0,1-3.12.59l-.34.58h8.44a.63.63,0,0,0,.61-.61V25h-.46A12.87,12.87,0,0,1,52.78,28.82Z" transform="translate(-27.99 -0.79)"/><path class="cls-1" d="M34,10a9.7,9.7,0,0,1,1.9-2.47,8.42,8.42,0,0,1,1.91-1.39A6.59,6.59,0,0,1,41,5.56L41.3,5H32.9a.61.61,0,0,0-.61.61v8.26h.46A12.3,12.3,0,0,1,34,10Z" transform="translate(-27.99 -0.79)"/><path class="cls-1" d="M31.81,38.09H55a3.81,3.81,0,0,0,3.82-3.81V4.6A3.81,3.81,0,0,0,55,.79H31.81A3.81,3.81,0,0,0,28,4.6V34.22a3.81,3.81,0,0,0,3.76,3.87ZM29.63,4.6a2.18,2.18,0,0,1,2.18-2.17H55A2.18,2.18,0,0,1,57.17,4.6V34.22A2.19,2.19,0,0,1,55,36.4H31.81a2.19,2.19,0,0,1-2.18-2.18Z" transform="translate(-27.99 -0.79)"/><path class="cls-1" d="M46.26,17.72,53.35,5.9a.6.6,0,0,0-.23-.83A.55.55,0,0,0,52.83,5h-3.4l-.34.57L42.45,16.84v.65Z" transform="translate(-27.99 -0.79)"/></svg>