<svg id="Layer_1" data-name="Layer 1" xmlns="http://www.w3.org/2000/svg" viewBox="0 0 86.8 38.88"><defs><style>.cls-1{fill:#2d3748;}</style></defs><path class="cls-1" d="M58.2,24.38a1.25,1.25,0,0,0,0-.4,1.45,1.45,0,0,0,0-.37,1.22,1.22,0,0,0-.14-.33,1,1,0,0,0-.25-.26,1.23,1.23,0,0,0-.36-.19l-.14,0-.13,0H55.85v0h.37v2.33h-.37v.05h1.23l.17,0a.4.4,0,0,0,.15,0l.15,0a1.17,1.17,0,0,0,.28-.17,1,1,0,0,0,.22-.23A1.57,1.57,0,0,0,58.2,24.38Zm-.38,0a1.5,1.5,0,0,1-.15.38.77.77,0,0,1-.16.19.78.78,0,0,1-.2.11.8.8,0,0,1-.21.05h-.54V22.81h.29a1.14,1.14,0,0,1,.48.09.62.62,0,0,1,.31.24.9.9,0,0,1,.17.37,1.89,1.89,0,0,1,0,.49A1.87,1.87,0,0,1,57.82,24.41Z" transform="translate(-34.1 -0.56)"/><path class="cls-1" d="M61.55,22.39a.17.17,0,0,0,.12,0,.15.15,0,0,0,0-.11.14.14,0,0,0,0-.11.18.18,0,0,0-.12-.05.16.16,0,0,0-.11.05.14.14,0,0,0,0,.11.14.14,0,0,0,.15.15Z" transform="translate(-34.1 -0.56)"/><polygon class="cls-1" points="28.01 24.58 27.63 24.58 27.63 22.25 28.01 22.25 28.01 22.21 26.91 22.21 26.91 22.25 27.29 22.25 27.29 24.58 26.91 24.58 26.91 24.63 28.01 24.63 28.01 24.58"/><polygon class="cls-1" points="32.18 22.25 32.52 22.25 31.88 23.45 31.2 22.25 31.54 22.25 31.54 22.21 30.5 22.21 30.5 22.25 30.8 22.25 31.57 23.61 31.57 24.58 31.19 24.58 31.19 24.63 32.29 24.63 32.29 24.58 31.91 24.58 31.91 23.5 32.57 22.25 32.9 22.25 32.9 22.21 32.18 22.21 32.18 22.25"/><path class="cls-1" d="M69.48,25.14v.05h2.07v-.75h0s0,.12,0,.2a.81.81,0,0,1-.32.42.59.59,0,0,1-.31.08H70.2V23.91h.27a.54.54,0,0,1,.2,0,.34.34,0,0,1,.12.12.8.8,0,0,1,.08.16c0,.06,0,.13,0,.19h0V23.36h0a1.64,1.64,0,0,1-.07.25.49.49,0,0,1-.1.16.27.27,0,0,1-.13.07.55.55,0,0,1-.19,0H70.2V22.81h.56a.61.61,0,0,1,.24,0,.37.37,0,0,1,.17.1.52.52,0,0,1,.12.17,1.6,1.6,0,0,1,.1.23h0v-.58h-2v0h.38v2.33Z" transform="translate(-34.1 -0.56)"/><path class="cls-1" d="M74.28,23.39h0a1,1,0,0,1,.14-.33.66.66,0,0,1,.16-.17.45.45,0,0,1,.18-.07h.35v2.33h-.38v.05h1.1v-.05h-.38V22.81h.35a.47.47,0,0,1,.17.07.68.68,0,0,1,.17.17,1,1,0,0,1,.13.33h0v-.62H74.28Z" transform="translate(-34.1 -0.56)"/><path class="cls-1" d="M79.41,22.13a.14.14,0,0,0,0,.11.16.16,0,0,0,0,.11.17.17,0,0,0,.22,0,.16.16,0,0,0,.05-.11.14.14,0,0,0-.05-.11.15.15,0,0,0-.22,0Z" transform="translate(-34.1 -0.56)"/><polygon class="cls-1" points="44.88 22.25 45.26 22.25 45.26 24.58 44.88 24.58 44.88 24.63 45.97 24.63 45.97 24.58 45.59 24.58 45.59 22.25 45.97 22.25 45.97 22.21 44.88 22.21 44.88 22.25"/><path class="cls-1" d="M84.32,24a.5.5,0,0,0-.19-.1L84,23.81l-.42-.13-.17-.06a.51.51,0,0,1-.16-.09.47.47,0,0,1-.11-.13.35.35,0,0,1,0-.18.41.41,0,0,1,.06-.23.47.47,0,0,1,.14-.14.64.64,0,0,1,.19-.08l.18,0a.66.66,0,0,1,.25.05.72.72,0,0,1,.19.14.86.86,0,0,1,.13.2,1.09,1.09,0,0,1,.07.24h0v-.61h0s0,.05,0,.05a.08.08,0,0,1-.06,0l-.09,0L84,22.77l-.14-.05-.19,0a.81.81,0,0,0-.31.06.51.51,0,0,0-.23.15.54.54,0,0,0-.15.22.72.72,0,0,0-.06.29.51.51,0,0,0,.14.37,1,1,0,0,0,.42.23l.39.12.15.05.15.1a.58.58,0,0,1,.11.15.39.39,0,0,1,.05.2.67.67,0,0,1,0,.18.54.54,0,0,1-.1.18.54.54,0,0,1-.18.14.85.85,0,0,1-.3.05h-.13l-.16,0-.16-.06a.58.58,0,0,1-.15-.13,1.16,1.16,0,0,1-.13-.2,1.26,1.26,0,0,1-.09-.31h0v.73h.05l0-.06.07,0,.14,0,.14.05.11,0,.1,0h.22a.8.8,0,0,0,.36-.07.88.88,0,0,0,.28-.17.9.9,0,0,0,.17-.26.8.8,0,0,0,.06-.3.5.5,0,0,0-.07-.29A.47.47,0,0,0,84.32,24Z" transform="translate(-34.1 -0.56)"/><polygon class="cls-1" points="54.19 23.61 54.19 24.58 53.81 24.58 53.81 24.63 54.9 24.63 54.9 24.58 54.53 24.58 54.53 23.5 55.19 22.25 55.52 22.25 55.52 22.21 54.79 22.21 54.79 22.25 55.13 22.25 54.49 23.45 53.81 22.25 54.15 22.25 54.15 22.21 53.11 22.21 53.11 22.25 53.42 22.25 54.19 23.61"/><path class="cls-1" d="M94.08,24.64a.7.7,0,0,1-.11.23.73.73,0,0,1-.2.19.62.62,0,0,1-.31.08h-.65V23.91h.28a.54.54,0,0,1,.2,0,.34.34,0,0,1,.12.12.77.77,0,0,1,.07.16c0,.06,0,.13,0,.19h0V23.36h0a.92.92,0,0,1-.08.25.35.35,0,0,1-.09.16.31.31,0,0,1-.14.07.53.53,0,0,1-.19,0h-.22V22.81h.57a.61.61,0,0,1,.24,0,.42.42,0,0,1,.17.1,1.25,1.25,0,0,1,.12.17l.09.23h0v-.58h-2v0h.38v2.33h-.38v.05h2.08v-.75h0A.64.64,0,0,1,94.08,24.64Z" transform="translate(-34.1 -0.56)"/><polygon class="cls-1" points="63.55 24.58 63.17 24.58 63.17 22.39 63.18 22.39 64.61 24.68 64.68 24.68 64.68 22.25 65.06 22.25 65.06 22.21 64.25 22.21 64.25 22.25 64.63 22.25 64.63 24.06 64.62 24.06 63.47 22.21 62.74 22.21 62.74 22.25 63.12 22.25 63.12 24.58 62.74 24.58 62.74 24.63 63.55 24.63 63.55 24.58"/><path class="cls-1" d="M39.54,35.52a2.43,2.43,0,0,1-.48.65,2.38,2.38,0,0,1-.51.37,1.72,1.72,0,0,1-.83.16H35.36l4.5-7.49H34.74v1.87h.12a2.49,2.49,0,0,1,.7-1.26,1.9,1.9,0,0,1,1.35-.46h1.66L34.1,36.85H40V34.5h-.12A3.53,3.53,0,0,1,39.54,35.52Z" transform="translate(-34.1 -0.56)"/><polygon class="cls-1" points="9.39 28.8 10.58 28.8 10.58 36.14 9.39 36.14 9.39 36.29 12.84 36.29 12.84 36.14 11.65 36.14 11.65 28.8 12.84 28.8 12.84 28.66 9.39 28.66 9.39 28.8"/><path class="cls-1" d="M44.86,27.2a.49.49,0,0,0-.15.35.47.47,0,0,0,.15.35.45.45,0,0,0,.34.15.45.45,0,0,0,.35-.15.47.47,0,0,0,.15-.35.5.5,0,0,0-.5-.49A.48.48,0,0,0,44.86,27.2Z" transform="translate(-34.1 -0.56)"/><path class="cls-1" d="M55,33a2.38,2.38,0,0,0-.61-.32l-.51-.17-1.3-.41-.55-.2a2.69,2.69,0,0,1-.5-.28,1.39,1.39,0,0,1-.35-.41,1.06,1.06,0,0,1-.14-.58,1.38,1.38,0,0,1,.17-.71,1.61,1.61,0,0,1,.45-.45,2,2,0,0,1,.58-.24,2.34,2.34,0,0,1,.57-.07,1.85,1.85,0,0,1,.8.17,1.67,1.67,0,0,1,.6.44,2.26,2.26,0,0,1,.4.63,2.85,2.85,0,0,1,.22.74h.13V29.21h-.15a.81.81,0,0,1-.13.19.32.32,0,0,1-.19,0,.66.66,0,0,1-.3-.07l-.32-.14-.44-.15a2.71,2.71,0,0,0-.62-.06,2.63,2.63,0,0,0-.95.17,2.39,2.39,0,0,0-.75.47,2,2,0,0,0-.48.72,2.17,2.17,0,0,0-.17.89,1.61,1.61,0,0,0,.44,1.18,3.28,3.28,0,0,0,1.32.71l1.23.37a4.32,4.32,0,0,1,.48.19,2.27,2.27,0,0,1,.46.3,1.84,1.84,0,0,1,.36.46,1.41,1.41,0,0,1,.13.64,1.94,1.94,0,0,1-.08.56,1.56,1.56,0,0,1-.3.57,1.65,1.65,0,0,1-.58.44,2.24,2.24,0,0,1-.93.17h-.44a3,3,0,0,1-.48-.08,2.09,2.09,0,0,1-.5-.2,1.89,1.89,0,0,1-.47-.4,2.69,2.69,0,0,1-.41-.65,4.19,4.19,0,0,1-.31-1h-.12v2.31h.17a.4.4,0,0,1,.1-.17.26.26,0,0,1,.22-.07,1.32,1.32,0,0,1,.43.09l.46.15h-.19l-.79.83.15.16.17-.09a.63.63,0,0,1,.26,0,.41.41,0,0,1,.4.22,1.1,1.1,0,0,1,.1.49,1.51,1.51,0,0,1,0,.3.77.77,0,0,1-.08.27.53.53,0,0,1-.16.2.51.51,0,0,1-.28.08.87.87,0,0,1-.42-.09,1.83,1.83,0,0,1-.29-.18l-.09.13a1.46,1.46,0,0,0,.37.23,1.14,1.14,0,0,0,.46.09,1.24,1.24,0,0,0,.79-.27.91.91,0,0,0,.34-.75.93.93,0,0,0-.11-.47,1,1,0,0,0-.25-.28.85.85,0,0,0-.29-.14.84.84,0,0,0-.23,0,1,1,0,0,0-.32,0,1,1,0,0,0-.21.11l0,0,.73-.77a2.37,2.37,0,0,0,.31.08l.3,0,.32,0H53a2.88,2.88,0,0,0,1.13-.21,2.61,2.61,0,0,0,.86-.56,2.27,2.27,0,0,0,.54-.8,2.45,2.45,0,0,0,.19-1,1.71,1.71,0,0,0-.21-.9A1.87,1.87,0,0,0,55,33Z" transform="translate(-34.1 -0.56)"/><path class="cls-1" d="M62,29h-.25l-2.9,7.68h-.94v.15h2.3V36.7H59l1.13-3h2.48l1.13,3H62.53v.15h3.3V36.7h-1Zm-1.79,4.55,1.18-3.12,1.18,3.12Z" transform="translate(-34.1 -0.56)"/><polygon class="cls-1" points="39.27 28.8 40.46 28.8 40.46 34.5 40.44 34.5 36.82 28.66 34.52 28.66 34.52 28.8 35.71 28.8 35.71 36.14 34.52 36.14 34.52 36.29 37.06 36.29 37.06 36.14 35.87 36.14 35.87 29.25 35.9 29.25 40.41 36.44 40.62 36.44 40.62 28.8 41.81 28.8 41.81 28.66 39.27 28.66 39.27 28.8"/><polygon class="cls-1" points="53.59 31.69 56.31 28.8 57.2 28.8 57.2 28.66 54.98 28.66 54.98 28.8 56.09 28.8 52.85 32.22 52.75 32.22 52.75 28.8 53.85 28.8 53.85 28.66 50.49 28.66 50.49 28.8 51.68 28.8 51.68 36.14 50.49 36.14 50.49 36.29 53.85 36.29 53.85 36.14 52.75 36.14 52.75 32.37 52.83 32.37 56.05 36.14 55.09 36.14 55.09 36.29 58.18 36.29 58.18 36.14 57.48 36.14 53.59 31.69"/><path class="cls-1" d="M98.6,27.42a.48.48,0,0,0-.14.35.48.48,0,0,0,.14.34.48.48,0,0,0,.7,0,.44.44,0,0,0,.14-.34.45.45,0,0,0-.14-.35.48.48,0,0,0-.7,0Z" transform="translate(-34.1 -0.56)"/><path class="cls-1" d="M97,28.26a.51.51,0,0,0,.49-.49.45.45,0,0,0-.15-.35.45.45,0,0,0-.34-.15.51.51,0,0,0-.5.5.45.45,0,0,0,.15.34A.45.45,0,0,0,97,28.26Z" transform="translate(-34.1 -0.56)"/><path class="cls-1" d="M100.53,30.17a3.83,3.83,0,0,0-1.2-.84A3.22,3.22,0,0,0,98,29a3.11,3.11,0,0,0-1.33.31,3.91,3.91,0,0,0-1.19.84,4.35,4.35,0,0,0-.87,1.26A3.84,3.84,0,0,0,94.22,33a4.23,4.23,0,0,0,.28,1.49,4.15,4.15,0,0,0,.78,1.28,4,4,0,0,0,1.18.89A3.42,3.42,0,0,0,98,37a3.22,3.22,0,0,0,1.47-.35,3.71,3.71,0,0,0,1.18-.9,4.05,4.05,0,0,0,.79-1.27,3.78,3.78,0,0,0,.29-1.47,4,4,0,0,0-.31-1.59A4.09,4.09,0,0,0,100.53,30.17Zm-.21,4.53a3.26,3.26,0,0,1-.43,1.2,2,2,0,0,1-.77.72,3,3,0,0,1-2.34,0A2,2,0,0,1,96,35.9a3.45,3.45,0,0,1-.43-1.2A10.34,10.34,0,0,1,95.46,33a11.09,11.09,0,0,1,.09-1.43,4.12,4.12,0,0,1,.37-1.23,2.22,2.22,0,0,1,.76-.87A2.32,2.32,0,0,1,98,29.17a2.27,2.27,0,0,1,1.27.32,2.14,2.14,0,0,1,.76.87,3.61,3.61,0,0,1,.37,1.23,9.54,9.54,0,0,1,.1,1.43A9.25,9.25,0,0,1,100.32,34.7Z" transform="translate(-34.1 -0.56)"/><path class="cls-1" d="M109.55,33a2.18,2.18,0,0,0-.6-.32l-.52-.17-1.29-.41-.56-.2a2.6,2.6,0,0,1-.49-.28,1.29,1.29,0,0,1-.36-.41,1.16,1.16,0,0,1-.14-.58,1.29,1.29,0,0,1,.18-.71,1.71,1.71,0,0,1,.44-.45,2.09,2.09,0,0,1,.58-.24,2.46,2.46,0,0,1,.57-.07,1.86,1.86,0,0,1,1.41.61,2.51,2.51,0,0,1,.4.63,3.92,3.92,0,0,1,.22.74h.13V29.21h-.15a.75.75,0,0,1-.14.19s-.09,0-.19,0a.62.62,0,0,1-.29-.07l-.33-.14-.43-.15a2.8,2.8,0,0,0-.63-.06,2.67,2.67,0,0,0-1,.17,2.23,2.23,0,0,0-.74.47,2.14,2.14,0,0,0-.49.72,2.35,2.35,0,0,0-.17.89,1.57,1.57,0,0,0,.45,1.18,3.23,3.23,0,0,0,1.31.71l1.23.37a4.32,4.32,0,0,1,.48.19,2.09,2.09,0,0,1,.47.3,1.6,1.6,0,0,1,.35.46,1.41,1.41,0,0,1,.14.64,2.36,2.36,0,0,1-.08.56,1.56,1.56,0,0,1-.3.57,1.75,1.75,0,0,1-.58.44,2.32,2.32,0,0,1-.94.17h-.43a3,3,0,0,1-.48-.08,1.94,1.94,0,0,1-.5-.2,1.73,1.73,0,0,1-.47-.4,3,3,0,0,1-.42-.65,4.76,4.76,0,0,1-.3-1h-.12v2.31H105a.55.55,0,0,1,.1-.17.28.28,0,0,1,.22-.07,1.27,1.27,0,0,1,.43.09l.46.15H106l-.79.83.15.16.17-.09a.6.6,0,0,1,.26,0,.41.41,0,0,1,.4.22,1.1,1.1,0,0,1,.1.49c0,.1,0,.2,0,.3a1.07,1.07,0,0,1-.08.27.55.55,0,0,1-.17.2.47.47,0,0,1-.28.08.93.93,0,0,1-.42-.09,1.7,1.7,0,0,1-.28-.18l-.09.13a1.59,1.59,0,0,0,.36.23,1.23,1.23,0,0,0,.47.09,1.19,1.19,0,0,0,.78-.27.88.88,0,0,0,.34-.75.84.84,0,0,0-.11-.47.85.85,0,0,0-.25-.28.71.71,0,0,0-.29-.14.74.74,0,0,0-.23,0,1,1,0,0,0-.31,0,.68.68,0,0,0-.21.11l0,0,.74-.77a2.26,2.26,0,0,0,.3.08l.31,0,.32,0h.39a2.93,2.93,0,0,0,1.14-.21,2.72,2.72,0,0,0,.86-.56,2.57,2.57,0,0,0,.54-.8,2.65,2.65,0,0,0,.19-1,1.71,1.71,0,0,0-.21-.9A1.77,1.77,0,0,0,109.55,33Z" transform="translate(-34.1 -0.56)"/><polygon class="cls-1" points="82.2 31.69 84.93 28.8 85.82 28.8 85.82 28.66 83.6 28.66 83.6 28.8 84.71 28.8 81.48 32.22 81.37 32.22 81.37 28.8 82.47 28.8 82.47 28.66 79.11 28.66 79.11 28.8 80.3 28.8 80.3 36.14 79.11 36.14 79.11 36.29 82.47 36.29 82.47 36.14 81.37 36.14 81.37 32.37 81.45 32.37 84.67 36.14 83.71 36.14 83.71 36.29 86.8 36.29 86.8 36.14 86.1 36.14 82.2 31.69"/><polygon class="cls-1" points="38.56 8.64 44.17 14.25 43.26 15.16 43.38 15.27 45.95 12.7 45.84 12.58 44.99 13.43 42.03 10.46 47.52 10.9 46.78 11.64 46.9 11.76 49.27 9.38 49.15 9.27 48.61 9.81 42.23 9.38 40.86 9.29 39.38 7.82 40.23 6.97 40.11 6.86 37.54 9.43 37.65 9.55 38.56 8.64"/><polygon class="cls-1" points="41.09 6.11 41.94 5.26 42.04 9.01 42.22 9.02 42.11 5.09 42.79 4.41 42.67 4.3 40.97 6 41.09 6.11"/><path class="cls-1" d="M71.92,17.42a.32.32,0,0,0,.27.48H74l.18-.3,2.24-3.74-1.46-1.47Z" transform="translate(-34.1 -0.56)"/><path class="cls-1" d="M82.41,15.27a5,5,0,0,1-1,1.29,4.72,4.72,0,0,1-1,.73,3.45,3.45,0,0,1-1.63.31l-.18.3h4.42a.33.33,0,0,0,.32-.32V13.25h-.24A6.7,6.7,0,0,1,82.41,15.27Z" transform="translate(-34.1 -0.56)"/><path class="cls-1" d="M72.59,5.42a5,5,0,0,1,1-1.29,4.4,4.4,0,0,1,1-.73,3.45,3.45,0,0,1,1.63-.31l.18-.3H72a.32.32,0,0,0-.32.32V7.44h.24A6.6,6.6,0,0,1,72.59,5.42Z" transform="translate(-34.1 -0.56)"/><path class="cls-1" d="M71.43,20.13H83.57a2,2,0,0,0,2-2V2.59a2,2,0,0,0-2-2H71.43a2,2,0,0,0-2,2V18.1A2,2,0,0,0,71.43,20.13ZM70.29,2.59a1.14,1.14,0,0,1,1.14-1.14H83.57a1.14,1.14,0,0,1,1.14,1.14V18.1a1.14,1.14,0,0,1-1.14,1.14H71.43a1.14,1.14,0,0,1-1.14-1.14Z" transform="translate(-34.1 -0.56)"/><path class="cls-1" d="M118.7,24.39a1,1,0,0,0,.24.3.71.71,0,0,0,.49.1,3.57,3.57,0,0,0,.55-.11,2.61,2.61,0,0,1,.92-.15,0,0,0,0,0,0,0,3.37,3.37,0,0,0-.59-.76,1.29,1.29,0,0,0-.69-.34.89.89,0,0,0-.58.1,2.63,2.63,0,0,1-.67.22h0a4.75,4.75,0,0,1,1.39.36,5.19,5.19,0,0,0-1.24-.2H102.25V24h15.86A.77.77,0,0,1,118.7,24.39Z" transform="translate(-34.1 -0.56)"/><path class="cls-1" d="M34.7,24.19a1.38,1.38,0,0,0,.69.35,1,1,0,0,0,.58-.1,2.31,2.31,0,0,1,.67-.23h0a4.75,4.75,0,0,1-1.39-.36,4.73,4.73,0,0,0,1.24.2H52.75V23.9H36.89a.74.74,0,0,1-.59-.35.85.85,0,0,0-.24-.29.67.67,0,0,0-.49-.11l-.55.11a2.61,2.61,0,0,1-.92.15s0,0,0,0A3.31,3.31,0,0,0,34.7,24.19Z" transform="translate(-34.1 -0.56)"/><path class="cls-1" d="M79,9.46l3.71-6.19a.32.32,0,0,0-.27-.48H80.66l-.18.3L77,9v.34Z" transform="translate(-34.1 -0.56)"/></svg>